#!OML:ASF E:\Style4\Style4.ASF
:FULLY-SPECIFIED
:DEGREES
4172
root 0.195652 16.9674 -0.221265 -12.5245 0.375011 4.45949
lowerback 10.1207 3.41004 -1.5324
upperback 9.27109 4.43287 0.751063
thorax 3.85411 2.13348 1.34129
lowerneck 6.71949 -1.94734 -5.15113
upperneck 5.32482 -2.96183 2.82678
head 0.65419 -1.55974 1.79698
rclavicle -2.5842e-014 2.06736e-014
rhumerus -2.96968 13.8506 -84.9893
rradius 129.863
rwrist 27.9264
rhand 30.5219 -7.03916
rfingers 7.12502
rthumb 54.1756 -25.7578
lclavicle -2.5842e-014 2.06736e-014
lhumerus -1.08368 -13.8837 86.2369
lradius 133.144
lwrist -17.6456
lhand 22.656 41.2922
lfingers 7.12502
lthumb 47.0008 63.9581
rfemur -4.84999 -4.15466 11.8271
rtibia 46.9492
rfoot -26.6932 -15.3684
rtoes -13.5937
lfemur -2.92996 3.03965 -22.8468
ltibia 42.4611
lfoot -26.2562 8.71381
ltoes -18.5686
4173
root 0.19583 16.9677 -0.217425 -12.4744 0.392071 4.51126
lowerback 10.0416 3.41755 -1.55987
upperback 9.26796 4.44327 0.729789
thorax 3.89328 2.1375 1.33863
lowerneck 6.70994 -1.92233 -5.17793
upperneck 5.33947 -2.93067 2.85805
head 0.660009 -1.54469 1.81141
rclavicle -2.44505e-014 -1.59028e-015
rhumerus -3.02686 13.9362 -84.9973
rradius 129.87
rwrist 27.9962
rhand 30.2966 -7.10272
rfingers 7.12502
rthumb 53.9735 -25.9587
lclavicle -2.44505e-014 -1.59028e-015
lhumerus -1.14479 -13.8742 86.2409
lradius 133.208
lwrist -17.5241
lhand 22.6732 41.2509
lfingers 7.12502
lthumb 47.0168 63.9097
rfemur -4.89314 -4.17396 11.7654
rtibia 46.9516
rfoot -26.7096 -15.3858
rtoes -13.6768
lfemur -2.94566 2.98898 -22.917
ltibia 42.4319
lfoot -26.3927 8.56332
ltoes -17.832
4174
root 0.196143 16.967 -0.215234 -12.4408 0.420593 4.55815
lowerback 10.0079 3.42463 -1.58691
upperback 9.25213 4.45177 0.724174
thorax 3.89301 2.14061 1.34864
lowerneck 6.73766 -1.89516 -5.19092
upperneck 5.34502 -2.89635 2.84736
head 0.655682 -1.52797 1.81018
rclavicle 8.05078e-015 1.66979e-014
rhumerus -3.03751 13.7922 -84.9459
rradius 129.858
rwrist 27.6271
rhand 30.9613 -6.3195
rfingers 7.12502
rthumb 54.5691 -24.7653
lclavicle 8.05078e-015 1.66979e-014
lhumerus -1.18782 -13.8542 86.2833
lradius 133.222
lwrist -17.4571
lhand 22.6531 41.2513
lfingers 7.12502
lthumb 46.9982 63.9183
rfemur -4.92266 -4.2084 11.6989
rtibia 46.9575
rfoot -26.6928 -15.4011
rtoes -13.8209
lfemur -2.95563 2.93995 -22.983
ltibia 42.4013
lfoot -26.4312 8.46198
ltoes -17.0885
4175
root 0.196409 16.968 -0.212737 -12.4196 0.420402 4.52779
lowerback 9.92751 3.43167 -1.54678
upperback 9.27809 4.46536 0.740497
thorax 3.96575 2.14815 1.34865
lowerneck 6.73536 -1.87894 -5.16323
upperneck 5.3322 -2.87194 2.81386
head 0.649981 -1.51518 1.79408
rclavicle -8.26944e-014 3.49861e-014
rhumerus -2.95192 13.4291 -84.8447
rradius 129.893
rwrist 26.7878
rhand 32.0605 -5.25692
rfingers 7.12502
rthumb 55.5493 -22.9907
lclavicle -8.26944e-014 3.49861e-014
lhumerus -1.15507 -13.8411 86.2838
lradius 133.219
lwrist -17.4416
lhand 22.5907 41.3214
lfingers 7.12502
lthumb 46.9405 64.0138
rfemur -4.92843 -4.20043 11.7381
rtibia 46.9548
rfoot -26.7034 -15.436
rtoes -14.076
lfemur -2.96924 2.9409 -22.9536
ltibia 42.3788
lfoot -26.3186 8.51729
ltoes -17.2238
4176
root 0.195726 16.9705 -0.210517 -12.3972 0.418848 4.55467
lowerback 9.79158 3.45731 -1.58377
upperback 9.3458 4.50043 0.760346
thorax 4.10723 2.16125 1.39896
lowerneck 6.76197 -1.87179 -5.15236
upperneck 5.25272 -2.86108 2.76426
head 0.619092 -1.5091 1.77664
rclavicle -1.40143e-014 2.22639e-014
rhumerus -2.79508 13.1524 -84.7255
rradius 129.931
rwrist 26.2335
rhand 32.0162 -5.12409
rfingers 7.12502
rthumb 55.5099 -22.8874
lclavicle -1.40143e-014 2.22639e-014
lhumerus -1.15439 -13.8845 86.3412
lradius 133.236
lwrist -17.5107
lhand 22.5642 41.27
lfingers 7.12502
lthumb 46.9159 63.9732
rfemur -4.93853 -4.18151 11.7173
rtibia 46.9557
rfoot -26.7168 -15.4489
rtoes -14.1476
lfemur -2.98478 3.00796 -22.9674
ltibia 42.3672
lfoot -26.1906 8.613
ltoes -17.736
4177
root 0.194959 16.9708 -0.208817 -12.364 0.455062 4.61101
lowerback 9.70033 3.47525 -1.64288
upperback 9.37979 4.52327 0.762096
thorax 4.18848 2.16837 1.43935
lowerneck 6.75592 -1.86791 -5.22464
upperneck 5.24832 -2.86125 2.81585
head 0.620704 -1.51032 1.80631
rclavicle -2.42517e-014 2.46493e-014
rhumerus -2.73531 13.2348 -84.6569
rradius 129.896
rwrist 26.5027
rhand 31.1132 -5.62057
rfingers 7.12502
rthumb 54.7049 -23.9706
lclavicle -2.42517e-014 2.46493e-014
lhumerus -1.22735 -13.9814 86.4154
lradius 133.26
lwrist -17.6146
lhand 22.4982 41.1354
lfingers 7.12502
lthumb 46.8549 63.8652
rfemur -4.96007 -4.19578 11.6531
rtibia 46.965
rfoot -26.732 -15.4091
rtoes -13.9881
lfemur -3.00956 3.0278 -23.0252
ltibia 42.3596
lfoot -26.1554 8.60169
ltoes -17.8818
4178
root 0.194387 16.9703 -0.206995 -12.3386 0.461673 4.58785
lowerback 9.64832 3.47073 -1.62333
upperback 9.39038 4.51935 0.77529
thorax 4.22875 2.16648 1.44629
lowerneck 6.76138 -1.86355 -5.23478
upperneck 5.22999 -2.85562 2.79252
head 0.613582 -1.50758 1.80061
rclavicle 2.13694e-014 -2.38542e-015
rhumerus -2.82623 13.8781 -84.6373
rradius 129.856
rwrist 27.8219
rhand 29.5974 -6.85272
rfingers 7.12502
rthumb 53.3446 -26.1244
lclavicle 2.13694e-014 -2.38542e-015
lhumerus -1.26271 -13.9774 86.3958
lradius 133.294
lwrist -17.6142
lhand 22.4561 41.1178
lfingers 7.12502
lthumb 46.8159 63.8647
rfemur -4.98506 -4.20904 11.6757
rtibia 46.9868
rfoot -26.7673 -15.3537
rtoes -13.632
lfemur -3.02759 3.02948 -22.9995
ltibia 42.3596
lfoot -26.1163 8.58668
ltoes -17.9737
4179
root 0.194416 16.9695 -0.203487 -12.3183 0.470064 4.66069
lowerback 9.61875 3.46957 -1.70831
upperback 9.39823 4.51388 0.761768
thorax 4.24858 2.15914 1.48185
lowerneck 6.71851 -1.8576 -5.26154
upperneck 5.22649 -2.84696 2.77917
head 0.619496 -1.50348 1.80041
rclavicle 3.07122e-014 -1.66979e-014
rhumerus -2.64519 13.266 -84.6005
rradius 129.822
rwrist 26.4401
rhand 30.9397 -5.56881
rfingers 7.12502
rthumb 54.5498 -24.0282
lclavicle 3.07122e-014 -1.66979e-014
lhumerus -1.23401 -13.9345 86.3364
lradius 133.326
lwrist -17.5402
lhand 22.4026 41.1631
lfingers 7.12502
lthumb 46.7663 63.9315
rfemur -5.00775 -4.21898 11.5848
rtibia 47.0204
rfoot -26.7903 -15.3575
rtoes -13.6547
lfemur -3.03106 3.04034 -23.0854
ltibia 42.3626
lfoot -26.1145 8.60447
ltoes -18.1732
4180
root 0.193984 16.968 -0.199624 -12.2951 0.482944 4.66763
lowerback 9.58545 3.45885 -1.72331
upperback 9.40094 4.4995 0.762689
thorax 4.26907 2.15074 1.49427
lowerneck 6.65644 -1.84614 -5.32551
upperneck 5.25819 -2.83355 2.80777
head 0.640759 -1.49783 1.82005
rclavicle 3.29983e-014 1.51076e-014
rhumerus -2.55708 13.0726 -84.573
rradius 129.794
rwrist 26.0071
rhand 31.3764 -5.20242
rfingers 7.12502
rthumb 54.9399 -23.3845
lclavicle 3.29983e-014 1.51076e-014
lhumerus -1.21897 -13.9068 86.3081
lradius 133.304
lwrist -17.4363
lhand 22.3377 41.1152
lfingers 7.12502
lthumb 46.7062 63.9098
rfemur -5.02642 -4.25424 11.5712
rtibia 47.0374
rfoot -26.7848 -15.3971
rtoes -13.7287
lfemur -3.04474 2.97653 -23.114
ltibia 42.3737
lfoot -26.1537 8.68473
ltoes -18.2
4181
root 0.192792 16.9662 -0.198619 -12.2819 0.471462 4.62779
lowerback 9.51663 3.46055 -1.66127
upperback 9.44774 4.50742 0.76414
thorax 4.36108 2.15677 1.46753
lowerneck 6.60694 -1.84174 -5.31998
upperneck 5.23062 -2.82481 2.81057
head 0.639912 -1.49287 1.81941
rclavicle 1.04362e-014 -4.77083e-015
rhumerus -2.43808 13.0192 -84.5453
rradius 129.769
rwrist 26.0664
rhand 31.42 -5.16715
rfingers 7.12502
rthumb 54.9789 -23.3211
lclavicle 1.04362e-014 -4.77083e-015
lhumerus -1.12121 -13.8823 86.2575
lradius 133.278
lwrist -17.3009
lhand 22.2388 40.9992
lfingers 7.12502
lthumb 46.6147 63.8334
rfemur -5.05126 -4.2375 11.6322
rtibia 47.0375
rfoot -26.7711 -15.4251
rtoes -13.8425
lfemur -3.06196 2.89061 -23.0818
ltibia 42.3869
lfoot -26.2716 8.67364
ltoes -18.0383
4182
root 0.19206 16.9659 -0.197328 -12.283 0.454217 4.59588
lowerback 9.39949 3.47941 -1.54005
upperback 9.55205 4.54389 0.739974
thorax 4.54705 2.1802 1.3857
lowerneck 6.57246 -1.87098 -5.31239
upperneck 5.10905 -2.8618 2.85623
head 0.609588 -1.51 1.83363
rclavicle 1.45113e-014 -6.36111e-015
rhumerus -2.22226 12.861 -84.4993
rradius 129.771
rwrist 26.1297
rhand 31.5665 -5.13952
rfingers 7.12502
rthumb 55.1095 -23.1987
lclavicle 1.45113e-014 -6.36111e-015
lhumerus -0.929364 -13.9088 86.1606
lradius 133.307
lwrist -17.2612
lhand 22.3452 41.0061
lfingers 7.12502
lthumb 46.7132 63.7976
rfemur -5.06169 -4.21091 11.6812
rtibia 47.0243
rfoot -26.7198 -15.4916
rtoes -13.9563
lfemur -3.05766 2.92541 -23.0169
ltibia 42.403
lfoot -26.3189 8.47813
ltoes -17.4846
4183
root 0.190431 16.9678 -0.194913 -12.2668 0.44833 4.57524
lowerback 9.36546 3.49318 -1.52815
upperback 9.56512 4.56335 0.755192
thorax 4.5788 2.18971 1.39658
lowerneck 6.63081 -1.88396 -5.35612
upperneck 5.01256 -2.88461 2.88587
head 0.571617 -1.52171 1.85273
rclavicle -4.30369e-014 8.74653e-015
rhumerus -2.15132 12.8349 -84.4594
rradius 129.773
rwrist 26.1621
rhand 31.5812 -5.15016
rfingers 7.12502
rthumb 55.1226 -23.1997
lclavicle -4.30369e-014 8.74653e-015
lhumerus -0.914138 -13.9034 86.1352
lradius 133.364
lwrist -17.3042
lhand 22.4879 41.1499
lfingers 7.12502
lthumb 46.8453 63.884
rfemur -5.07522 -4.20017 11.7186
rtibia 47.0139
rfoot -26.6849 -15.576
rtoes -14.1844
lfemur -3.08295 2.97516 -22.982
ltibia 42.4293
lfoot -26.2554 8.55749
ltoes -17.9229
4184
root 0.189178 16.9672 -0.193586 -12.2604 0.439111 4.57106
lowerback 9.47128 3.49117 -1.61129
upperback 9.4866 4.55145 0.800218
thorax 4.42688 2.17953 1.47928
lowerneck 6.73785 -1.87287 -5.41589
upperneck 4.99364 -2.87825 2.86155
head 0.548068 -1.52001 1.85693
rclavicle 6.65929e-015 1.03368e-014
rhumerus -2.25975 13.0028 -84.4501
rradius 129.762
rwrist 26.0771
rhand 31.4898 -5.35003
rfingers 7.12502
rthumb 55.0411 -23.4589
lclavicle 6.65929e-015 1.03368e-014
lhumerus -1.07115 -13.8505 86.1815
lradius 133.425
lwrist -17.333
lhand 22.6116 41.2775
lfingers 7.12502
lthumb 46.9597 63.9614
rfemur -5.0695 -4.20531 11.7285
rtibia 47.0321
rfoot -26.7684 -15.4792
rtoes -14.0356
lfemur -3.10128 2.93589 -22.9941
ltibia 42.454
lfoot -26.2619 8.66033
ltoes -18.1485
